<?xml version="1.0" standalone="no"?>
<!DOCTYPE svg PUBLIC "-//W3C//DTD SVG 20010904//EN"
 "http://www.w3.org/TR/2001/REC-SVG-20010904/DTD/svg10.dtd">
<svg version="1.0" xmlns="http://www.w3.org/2000/svg"
 width="640.000000pt" height="640.000000pt" viewBox="0 0 640.000000 640.000000"
 preserveAspectRatio="xMidYMid meet">
<metadata>
Created by potrace 1.16, written by Peter Selinger 2001-2019
</metadata>
<g transform="translate(0.000000,640.000000) scale(0.100000,-0.100000)"
fill="#000000" stroke="none">
<path d="M3671 5632 c-57 -26 -106 -53 -109 -59 -2 -7 1 -13 6 -13 6 0 8 -17
5 -41 l-6 -40 39 16 c21 9 41 20 45 26 3 6 8 10 10 8 2 -1 21 3 42 10 30 10
41 10 53 0 22 -18 6 -30 -103 -74 -93 -38 -123 -58 -104 -69 5 -4 43 9 84 28
111 50 114 51 119 22 5 -22 -3 -27 -96 -67 -101 -42 -135 -63 -123 -75 9 -9
53 4 70 21 8 7 28 17 43 20 28 7 76 25 121 47 12 6 19 16 16 24 -3 8 0 28 7
44 10 24 10 33 0 45 -10 12 -10 15 4 15 23 0 20 32 -4 53 -20 17 -24 16 -93
-13 -39 -16 -75 -30 -78 -30 -13 0 7 53 22 61 7 5 45 22 82 39 38 16 65 34 62
40 -3 5 -7 10 -8 9 -1 -1 -49 -22 -106 -47z"/>
<path d="M3730 5312 c-19 -8 -55 -24 -79 -36 -25 -11 -47 -21 -50 -22 -32 -5
-99 -54 -74 -54 9 0 123 40 197 69 16 6 31 9 34 6 3 -3 0 -5 -6 -5 -6 0 -12
-12 -14 -26 -3 -24 -16 -32 -108 -71 -106 -45 -128 -58 -118 -68 6 -6 100 21
193 55 28 10 58 21 68 24 14 5 16 10 7 25 -7 14 -7 28 0 47 7 16 7 30 2 33 -6
3 -11 13 -13 22 -4 15 -7 15 -39 1z"/>
<path d="M2500 4881 c-19 -9 -62 -27 -95 -40 -65 -26 -89 -43 -84 -59 3 -7 30
0 70 17 l67 28 0 -23 c0 -19 -15 -30 -89 -65 -65 -31 -89 -47 -89 -61 0 -20
-12 -24 141 42 l77 33 5 44 c2 24 12 52 22 63 27 29 14 40 -25 21z"/>
<path d="M3690 4845 c-30 -13 -93 -39 -140 -58 -74 -31 -85 -38 -87 -61 -1
-14 2 -26 7 -26 9 0 114 47 214 96 28 13 56 24 63 24 7 0 13 11 13 25 0 30 0
30 -70 0z"/>
<path d="M3600 4671 c-132 -54 -145 -61 -148 -86 -3 -25 -3 -26 20 -12 13 8
77 32 143 52 66 21 126 42 133 48 13 10 17 57 5 57 -5 -1 -73 -27 -153 -59z"/>
<path d="M3670 4549 c-41 -16 -84 -34 -95 -39 -11 -5 -47 -20 -80 -33 -45 -17
-61 -29 -63 -45 l-3 -22 53 21 c29 12 62 22 73 23 11 2 52 16 90 33 39 17 77
33 86 36 17 5 32 44 21 51 -4 2 -41 -9 -82 -25z"/>
<path d="M4091 4353 c-35 -13 -65 -24 -67 -25 -1 -2 0 -33 3 -70 l6 -66 20 19
c12 10 24 20 29 20 4 1 11 2 16 3 4 1 22 6 40 10 29 7 32 11 31 44 -1 20 -4
49 -8 63 l-6 25 -64 -23z"/>
<path d="M4556 4331 c-39 -16 -71 -32 -73 -38 -2 -5 3 -25 11 -44 9 -19 15
-26 16 -17 0 19 5 23 42 32 22 5 27 2 30 -16 2 -16 9 -22 23 -21 20 3 -8 -12
-67 -36 -16 -6 -28 -15 -28 -20 0 -5 14 -2 31 6 24 12 39 13 64 6 30 -10 32
-9 27 11 -3 11 -1 18 3 14 10 -10 37 11 30 23 -3 4 -13 6 -23 3 -16 -5 -16 -5
0 5 9 6 15 19 13 28 -2 10 -7 35 -10 56 -3 20 -9 37 -13 36 -4 0 -38 -13 -76
-28z"/>
<path d="M4682 4203 c-18 -16 -32 -37 -32 -45 0 -21 -16 -33 -77 -54 -40 -14
-53 -23 -53 -39 0 -40 14 -48 55 -31 48 21 55 20 55 -3 0 -26 9 -30 44 -24 26
5 28 8 22 44 -4 24 -2 39 4 39 5 0 10 -9 10 -20 0 -11 6 -20 14 -20 21 0 29
17 14 27 -7 4 -20 22 -30 38 -14 27 -15 34 -2 64 21 50 12 59 -24 24z"/>
<path d="M3668 4194 c-27 -13 -48 -22 -48 -20 0 3 -28 -7 -62 -21 -72 -29
-161 -63 -165 -63 -2 0 -3 -15 -2 -32 0 -28 2 -30 9 -13 5 11 9 17 9 14 1 -4
38 7 84 23 79 28 103 36 120 37 4 1 7 11 7 24 0 18 2 19 10 7 8 -12 10 -12 10
5 0 15 2 17 9 6 7 -11 9 -11 14 0 4 10 6 11 6 1 1 -10 7 -9 30 2 16 9 31 12
35 9 3 -4 6 6 6 20 0 33 -11 33 -72 1z"/>
<path d="M3707 4013 c-9 -3 -14 -9 -11 -15 4 -7 2 -8 -4 -4 -18 11 -202 -66
-202 -84 0 -11 -2 -12 -8 -2 -7 10 -19 9 -58 -5 -27 -10 -51 -19 -53 -20 -2
-1 -6 -21 -8 -44 -4 -36 -3 -40 13 -37 12 2 20 13 22 31 2 15 8 25 13 22 5 -4
9 -2 9 3 0 5 6 9 13 10 6 0 22 4 35 7 16 6 22 3 22 -9 0 -9 4 -16 9 -16 18 0
101 41 101 50 0 6 9 10 20 10 11 0 20 6 20 14 0 8 11 17 25 20 14 4 25 11 25
17 0 6 5 7 10 4 6 -3 10 4 11 17 1 23 1 23 8 -2 l7 -25 8 24 c9 26 -1 39 -27
34z"/>
<path d="M4646 3868 c-44 -16 -82 -30 -84 -33 -2 -2 2 -28 9 -58 9 -44 15 -54
28 -49 9 3 19 10 23 16 5 7 8 7 8 -1 0 -7 4 -13 8 -13 4 0 7 17 5 38 l-3 37
14 -35 14 -35 3 30 c1 24 3 26 6 8 5 -26 11 -28 33 -12 13 9 12 10 -2 5 -14
-4 -18 0 -18 20 0 14 4 23 9 19 5 -3 13 0 17 7 5 8 10 6 15 -8 5 -13 8 -5 8
26 0 25 -3 50 -7 55 -4 7 -35 1 -86 -17z"/>
<path d="M3528 3721 c-98 -37 -181 -71 -185 -75 -11 -10 -11 -56 -1 -50 4 3 8
-5 8 -18 l0 -23 13 24 c8 15 34 32 75 47 60 22 62 23 62 4 0 -11 2 -20 5 -20
14 0 202 74 211 84 6 6 14 30 17 54 4 35 2 42 -11 41 -10 -1 -97 -31 -194 -68z"/>
<path d="M1990 3552 c-13 -4 -105 -39 -238 -90 -32 -13 -49 -27 -63 -54 -10
-21 -19 -41 -19 -47 0 -15 40 0 55 22 8 12 20 17 29 14 9 -4 16 -2 16 3 0 5
11 12 24 16 14 3 27 13 30 21 4 9 14 13 26 10 10 -3 21 0 23 7 3 8 8 7 19 -2
11 -8 18 -9 23 -3 3 6 21 18 40 27 21 10 38 27 44 46 12 35 12 37 -9 30z"/>
<path d="M3675 3526 c-16 -6 -105 -38 -197 -70 -182 -65 -178 -62 -178 -147 0
-38 27 -39 32 -2 3 28 13 33 186 97 l62 24 0 -24 c0 -28 5 -29 42 -10 15 8 41
17 58 21 35 8 50 35 50 91 0 37 -6 39 -55 20z"/>
<path d="M1775 3283 c-77 -30 -147 -56 -156 -59 -16 -5 -56 -90 -47 -99 6 -6
22 8 40 37 10 15 31 29 50 33 18 4 66 18 107 32 51 16 77 21 85 13 5 -5 13
-10 17 -10 10 0 52 86 48 97 -2 5 -67 -15 -144 -44z"/>
<path d="M4752 3277 l-94 -31 6 -34 c6 -41 14 -51 25 -33 11 17 17 6 26 -46 5
-32 10 -40 22 -36 8 3 10 9 5 12 -15 9 -23 64 -12 81 9 13 10 13 10 0 0 -8 5
-33 11 -55 9 -33 13 -37 23 -23 9 12 14 13 23 3 9 -10 3 -15 -28 -25 -33 -11
-39 -17 -39 -42 0 -18 5 -28 15 -28 11 0 14 7 9 25 -4 15 -2 25 5 25 6 0 11
-11 11 -25 0 -14 5 -25 11 -25 7 0 9 10 7 25 -3 14 -1 28 3 31 5 3 9 -4 9 -15
0 -18 6 -21 43 -21 54 0 64 8 65 50 1 19 4 58 8 86 5 48 4 52 -25 77 -17 14
-31 33 -31 41 0 20 3 20 -108 -17z"/>
<path d="M3668 3243 c-10 -2 -18 -14 -19 -26 0 -21 -1 -21 -9 -2 l-9 20 0 -20
c-1 -14 -4 -16 -9 -7 -7 10 -35 4 -126 -27 -65 -22 -123 -44 -130 -49 -6 -5
-23 -12 -38 -16 -17 -4 -28 -13 -29 -24 0 -14 -2 -14 -10 3 -7 16 -8 12 -6
-17 2 -21 -1 -38 -5 -38 -4 0 -8 -15 -7 -32 1 -31 1 -32 9 -8 7 22 8 22 10 5
2 -12 5 -6 10 15 7 31 7 32 9 8 0 -17 7 -28 16 -28 26 0 65 23 65 39 0 14 2
14 10 1 7 -11 10 -6 11 20 0 30 2 32 10 15 7 -16 8 -12 6 17 -3 44 9 38 16 -7
4 -27 4 -26 6 8 1 30 5 37 21 37 12 0 20 7 21 18 0 14 2 14 7 2 4 -9 14 -15
22 -15 9 0 17 -13 21 -35 l6 -35 2 37 c1 41 21 64 21 24 0 -14 4 -27 9 -30 12
-8 111 23 111 34 0 5 7 7 15 4 12 -5 15 5 15 55 0 64 -3 67 -52 54z"/>
<path d="M7 3223 c-15 -14 -6 -23 24 -23 17 0 28 -4 24 -10 -3 -5 -17 -10 -31
-10 l-24 0 0 -190 c0 -164 2 -189 15 -184 8 4 15 1 15 -5 0 -6 5 -11 11 -11 5
0 8 4 4 10 -3 5 15 3 40 -4 45 -14 45 -14 52 12 9 39 26 51 74 54 37 3 43 0
48 -19 5 -19 8 -20 24 -8 10 7 16 17 15 21 -2 5 2 10 7 11 6 1 9 -5 7 -13 -2
-8 5 -14 17 -14 11 0 24 -7 29 -15 7 -13 14 -14 36 -5 15 5 31 8 36 5 5 -3 10
1 13 7 3 10 12 9 36 -4 18 -10 31 -13 31 -6 0 5 6 8 14 5 16 -6 30 19 16 28
-5 3 -20 0 -33 -6 -21 -9 -30 -8 -51 7 -14 11 -26 25 -26 32 0 6 -4 12 -10 12
-5 0 -10 7 -10 15 0 20 9 19 33 -2 18 -17 18 -17 0 15 -11 20 -24 31 -33 29
-21 -5 -41 18 -33 39 5 14 3 15 -16 5 -12 -7 -25 -10 -30 -7 -5 3 -11 -3 -14
-14 -4 -14 -14 -20 -35 -20 -17 0 -34 -4 -37 -10 -3 -5 -13 -10 -21 -10 -8 0
-14 5 -14 10 0 6 8 10 17 10 9 0 14 3 10 6 -3 3 -2 17 3 30 7 18 6 24 -5 24
-9 0 -12 6 -9 15 5 11 2 14 -12 9 -11 -4 -16 -4 -12 1 10 11 -17 35 -41 35
-24 0 -25 4 -10 31 5 11 15 17 22 13 9 -5 8 -3 0 7 -7 7 -13 21 -13 31 0 12
-8 18 -22 18 -26 1 -58 22 -58 39 0 12 -62 16 -73 4z"/>
<path d="M1265 3087 c-27 -11 -51 -22 -53 -23 -3 -2 -10 -29 -11 -49 -1 -5 -6
-3 -11 5 -7 11 -12 12 -20 4 -9 -9 -9 -14 -1 -18 19 -12 12 -44 -10 -51 -31
-10 -97 -76 -81 -82 6 -3 12 -14 12 -24 0 -11 4 -17 10 -14 5 3 7 19 3 35 -3
20 -1 30 6 30 8 0 10 -8 6 -19 -3 -11 -2 -22 4 -25 15 -10 39 4 44 25 3 13 14
19 32 19 19 0 26 4 22 14 -3 8 4 18 18 24 15 7 25 23 30 48 3 21 20 54 36 73
47 57 41 61 -36 28z"/>
<path d="M4165 3081 c-89 -31 -81 -17 -77 -136 3 -85 22 -66 23 23 1 65 2 71
10 42 4 -19 9 -59 10 -89 1 -30 6 -66 10 -80 6 -17 8 6 5 66 -3 85 -2 92 17
97 12 3 23 4 24 2 8 -8 9 -97 2 -102 -8 -5 -14 42 -10 75 2 7 -2 10 -9 6 -8
-5 -10 -30 -6 -78 6 -73 16 -104 16 -49 0 18 5 32 10 32 6 0 10 -11 10 -25 0
-14 5 -25 10 -25 6 0 10 14 10 31 0 17 4 28 10 24 5 -3 7 -12 4 -19 -3 -8 -1
-17 5 -21 7 -4 11 5 11 25 0 19 4 29 10 25 6 -4 9 -13 8 -20 -2 -8 1 -14 7
-14 5 0 8 14 6 32 -3 36 -11 49 -18 29 -3 -6 -9 -10 -14 -6 -12 7 -12 104 1
104 6 0 10 -18 10 -41 0 -22 3 -38 8 -36 12 8 2 157 -11 156 -7 0 -48 -13 -92
-28z"/>
<path d="M1740 3059 c-41 -15 -100 -37 -130 -49 -30 -12 -59 -22 -65 -24 -41
-10 -55 -22 -73 -64 -11 -26 -18 -49 -16 -51 9 -10 73 32 67 43 -4 6 1 5 10
-3 12 -9 17 -10 17 -2 0 7 4 9 10 6 5 -3 12 5 15 18 5 20 50 47 82 49 5 0 24
8 43 18 19 10 50 21 68 25 23 5 36 15 43 32 5 14 8 27 7 28 -2 1 -37 -11 -78
-26z"/>
<path d="M4778 2969 c45 -43 47 -53 8 -63 -14 -3 -36 -10 -50 -16 -25 -9 -25
-10 -11 -52 7 -24 16 -64 20 -90 7 -52 11 -55 58 -34 33 14 148 39 154 33 2
-2 -42 -19 -97 -37 l-100 -32 2 -39 c4 -47 7 -47 112 -14 43 14 85 25 92 25
23 0 27 21 14 83 -43 223 -41 217 -68 217 -24 0 -25 0 -7 20 10 11 15 23 12
26 -7 8 -67 -34 -67 -47 0 -5 -6 -9 -12 -9 -17 1 -68 46 -68 60 0 5 -8 10 -17
10 -13 0 -6 -12 25 -41z"/>
<path d="M828 2923 c-29 -12 -40 -24 -47 -50 -19 -67 -35 -93 -53 -87 -10 3
-18 1 -18 -5 0 -6 5 -11 10 -11 6 0 10 -5 10 -11 0 -5 -4 -8 -9 -4 -5 3 -13 0
-17 -6 -14 -23 19 -27 40 -4 23 24 61 40 89 36 18 -2 23 14 7 24 -14 9 -12 25
3 23 6 -2 12 4 12 12 0 18 21 33 35 25 15 -9 12 -19 -10 -43 -12 -12 -16 -23
-10 -27 17 -10 11 -33 -9 -40 -14 -4 -17 -12 -13 -27 5 -21 4 -21 -19 -5 -29
21 -39 21 -39 2 0 -8 7 -15 15 -15 8 0 15 -5 15 -11 0 -6 -7 -8 -16 -5 -9 4
-22 2 -29 -4 -9 -8 -17 -6 -28 4 -8 8 -28 18 -43 22 -29 7 -29 7 -11 -14 12
-13 15 -22 8 -27 -6 -3 -11 -2 -11 3 0 12 -40 23 -52 16 -5 -3 -3 -12 3 -21
11 -12 9 -13 -13 -8 -18 5 -27 2 -32 -10 -3 -9 -4 -21 0 -26 3 -5 -2 -9 -10
-9 -9 0 -16 -4 -16 -9 0 -12 -39 -21 -46 -10 -9 15 -27 10 -20 -6 3 -9 0 -15
-8 -15 -8 0 -20 -9 -27 -19 -19 -26 -79 -39 -79 -16 0 8 -7 18 -15 21 -22 9
-18 24 7 24 16 0 19 3 11 11 -14 14 -53 2 -53 -17 0 -8 -6 -14 -12 -15 -7 0
-4 -4 7 -9 11 -5 15 -9 8 -9 -6 -1 -18 -4 -27 -7 -11 -4 -16 0 -16 15 0 13 -5
19 -14 15 -8 -3 -12 -13 -8 -26 4 -18 2 -20 -17 -15 -17 4 -21 2 -17 -9 3 -8
1 -14 -3 -14 -5 0 -17 -3 -25 -6 -12 -5 -15 -1 -13 16 2 12 9 25 17 30 7 4 10
12 6 18 -3 6 -2 13 4 17 5 3 10 10 10 16 0 14 -28 11 -33 -3 -4 -10 -7 -10
-18 0 -7 6 -17 12 -22 12 -5 0 -5 -6 1 -12 12 -15 -17 -58 -39 -58 -7 0 -9 -3
-6 -7 4 -3 1 -13 -6 -21 -10 -13 -9 -15 6 -9 11 4 31 10 45 14 45 11 10 -21
-38 -36 -22 -6 -40 -18 -40 -25 0 -7 -11 -18 -25 -24 -21 -10 -25 -9 -25 3 0
8 -9 15 -20 15 -15 0 -20 -7 -20 -26 0 -21 4 -24 20 -19 14 5 20 2 20 -10 0
-12 -6 -15 -20 -10 -20 6 -20 2 -20 -327 1 -295 2 -331 15 -314 13 17 15 18
15 3 0 -18 17 -22 35 -9 6 4 11 20 12 36 1 34 23 61 23 29 0 -25 25 -37 50
-23 14 8 19 5 23 -11 4 -16 -1 -23 -24 -33 -42 -18 -131 -169 -106 -180 7 -2
5 -5 -4 -5 -17 -1 -27 -18 -35 -58 -5 -27 -6 -27 56 -7 37 12 52 23 64 47 8
17 13 33 12 35 -2 1 -16 -2 -31 -8 -15 -6 -30 -9 -32 -6 -2 2 16 12 41 21 25
10 43 21 41 26 -3 4 -1 10 5 14 6 3 19 24 30 46 22 42 47 50 74 24 22 -22 24
-19 23 31 0 38 4 50 24 65 16 12 26 14 30 7 14 -23 39 1 39 37 0 30 -3 36 -20
33 -10 -2 -18 2 -17 7 1 6 13 9 26 7 18 -2 22 1 18 12 -4 10 -1 13 9 9 7 -3
14 0 14 6 0 6 -6 11 -12 11 -19 0 -41 52 -27 61 6 4 9 11 6 16 -3 5 9 31 28
58 36 54 33 63 -17 46 -26 -9 -35 -8 -50 6 -14 13 -21 14 -30 5 -16 -16 -25
-15 -32 4 -4 12 -2 15 9 10 20 -7 20 18 0 38 -19 19 -19 32 1 40 22 8 18 10
58 -29 35 -34 66 -46 66 -25 0 19 35 50 56 50 12 0 25 6 27 13 3 7 6 5 6 -5 2
-29 21 -20 22 10 0 27 0 27 10 3 7 -18 15 -22 34 -19 17 4 25 1 25 -8 0 -8 5
-14 11 -14 8 0 9 13 5 41 -4 28 -3 38 4 34 6 -4 17 -1 25 5 12 10 13 7 5 -21
-5 -17 -7 -36 -4 -41 10 -16 34 14 34 43 0 22 5 29 19 29 10 0 21 7 25 15 5
15 -4 19 -36 16 -21 -3 -22 0 -6 33 10 23 12 24 23 9 11 -15 15 -15 29 -4 11
9 16 10 16 2 0 -18 58 -13 69 7 10 16 10 16 11 0 0 -10 5 -18 10 -18 14 0 12
20 -5 50 -25 44 -11 56 25 20 12 -12 22 -15 26 -9 3 6 11 3 20 -8 12 -17 13
-16 14 8 0 25 -26 58 -39 51 -3 -2 -7 1 -9 7 -2 6 0 11 6 11 5 0 9 6 9 13 0 7
8 25 18 41 17 26 20 27 32 10 7 -9 9 -22 5 -28 -7 -10 -8 -19 -3 -42 0 -4 7
-1 14 5 8 6 17 8 20 4 4 -3 7 -1 7 7 0 10 3 10 15 0 9 -7 16 -11 18 -9 1 2 8
13 14 24 17 26 43 85 43 95 0 5 -8 6 -19 3 -11 -3 -29 5 -45 22 -15 15 -30 24
-33 21 -4 -3 3 -15 15 -27 13 -11 20 -24 17 -30 -9 -13 -26 -11 -22 2 1 6 -4
14 -12 17 -10 3 -13 -1 -8 -17 3 -12 0 -21 -6 -21 -18 0 -74 40 -57 40 13 0
13 1 0 10 -25 16 -40 11 -40 -12 0 -21 0 -21 -14 -2 -19 25 -7 36 51 45 27 4
57 9 68 12 11 2 28 0 38 -5 10 -5 17 -5 17 1 0 8 79 5 88 -4 2 -2 17 1 33 5
23 7 31 5 36 -6 8 -21 33 -17 33 6 0 14 9 21 37 26 32 6 34 8 20 19 -10 7 -17
22 -17 34 0 11 -4 21 -10 21 -5 0 -10 -6 -10 -14 0 -11 -10 -14 -34 -13 -42 3
-51 10 -42 34 7 17 8 17 21 -1 8 -11 21 -16 30 -13 20 8 19 27 -2 27 -13 0
-14 3 -6 11 15 15 63 3 63 -16 0 -9 6 -12 16 -8 10 4 12 8 4 13 -6 4 -8 15 -4
25 6 16 3 17 -22 12 -16 -3 -23 -4 -16 -1 6 3 12 14 12 25 0 10 5 19 11 19 6
0 9 -7 5 -15 -4 -10 1 -15 14 -15 12 0 20 -7 20 -16 0 -22 25 -11 26 12 2 34
4 39 12 27 5 -8 21 -10 45 -6 20 3 34 9 32 14 -3 4 -20 5 -39 2 -19 -3 -36 -1
-40 6 -10 15 -99 14 -115 -1 -11 -11 -13 -10 -7 5 3 10 6 21 6 23 0 2 10 4 22
4 14 0 19 3 12 10 -13 13 -54 1 -54 -16 0 -7 -12 -16 -27 -20 -16 -3 -35 -8
-43 -12 -43 -17 -59 -11 -62 21 -2 26 -7 31 -23 29 -39 -6 -49 -12 -37 -24 16
-16 3 -38 -24 -38 -15 0 -24 6 -24 16 0 10 6 14 15 10 10 -4 15 1 15 16 0 18
-4 20 -30 14 -17 -3 -29 -2 -26 3 3 5 -1 14 -9 21 -10 9 -15 9 -15 1 0 -6 -4
-11 -10 -11 -6 0 -6 9 0 25 11 30 -4 32 -62 8z"/>
<path d="M3646 2905 c-26 -14 -30 -15 -51 -20 -10 -2 -288 -93 -315 -103 -8
-3 -18 -4 -22 -4 -5 1 -9 -6 -9 -15 -3 -34 -6 -60 -13 -97 -7 -38 -7 -38 21
-31 34 8 29 2 37 50 5 29 4 36 -3 25 -7 -10 -11 -11 -11 -3 0 7 9 17 20 23 16
9 20 8 21 -7 0 -14 2 -13 9 5 5 12 16 22 25 22 9 0 15 9 16 23 1 18 2 18 6 4
3 -11 11 -16 19 -13 7 3 16 1 19 -4 4 -6 2 -10 -3 -10 -12 0 -3 -48 11 -57 6
-4 8 2 4 17 -6 25 7 60 23 60 5 0 12 -11 16 -25 3 -14 10 -25 15 -25 5 0 3 11
-3 25 -12 28 -2 48 12 25 8 -12 10 -11 10 5 0 17 3 15 20 -10 11 -16 20 -25
20 -18 0 6 -4 14 -10 18 -5 3 -6 13 -3 23 5 13 11 7 25 -23 19 -43 25 -34 8
10 -9 23 -8 26 5 21 8 -3 15 -2 15 3 0 9 89 37 103 33 4 -1 7 7 7 19 0 11 5
17 10 14 6 -3 10 1 10 10 0 9 -4 13 -10 10 -5 -3 -10 -1 -10 4 0 6 5 11 10 11
6 0 10 4 10 8 0 13 -36 11 -64 -3z"/>
<path d="M2700 2897 c-19 -6 -38 -16 -42 -21 -4 -6 -8 -8 -8 -4 0 4 -13 2 -29
-3 -23 -8 -31 -19 -40 -54 -14 -54 -27 -64 -35 -25 -3 17 -10 30 -15 30 -16 0
-20 -28 -10 -66 8 -28 8 -39 -3 -45 -9 -6 -7 -9 10 -9 24 0 30 -28 10 -48 -21
-21 1 -25 49 -8 26 10 58 20 71 23 12 3 22 10 22 15 0 5 5 6 10 3 6 -3 10 1
10 9 0 9 -5 16 -12 16 -7 0 -5 5 4 13 9 6 18 26 21 42 2 17 2 24 0 17 -3 -7
-9 -9 -15 -6 -6 4 -8 -2 -3 -16 5 -15 4 -20 -4 -16 -6 4 -11 3 -11 -2 0 -12
-45 -21 -70 -15 -12 3 -16 11 -13 20 3 8 7 24 8 36 1 12 3 26 4 31 0 4 8 6 16
2 8 -3 21 2 30 10 14 14 16 13 24 -8 8 -19 10 -20 10 -4 1 11 4 16 7 13 11
-11 44 34 44 60 0 12 -1 23 -2 22 -2 -1 -19 -6 -38 -12z"/>
<path d="M1630 2788 c-49 -18 -88 -26 -113 -24 -30 3 -37 1 -35 -11 2 -9 -3
-18 -11 -21 -8 -2 -11 0 -7 6 8 13 -22 24 -46 16 -11 -3 -23 -17 -29 -31 -7
-18 -14 -23 -28 -18 -11 3 -22 1 -26 -5 -3 -5 -15 -10 -26 -10 -10 0 -19 -7
-19 -15 0 -11 8 -13 30 -9 27 6 29 5 24 -21 -3 -16 -10 -37 -15 -47 -10 -18
-8 -20 33 -16 36 2 43 0 42 -14 -1 -10 4 -18 10 -18 23 0 11 45 -13 48 -29 5
-22 24 11 33 15 4 39 18 53 32 15 13 55 32 89 42 89 25 119 37 138 52 17 15
30 51 20 56 -4 2 -41 -9 -82 -25z"/>
<path d="M4190 2717 c-88 -30 -95 -34 -92 -57 2 -14 5 -55 9 -92 3 -38 8 -68
10 -68 3 0 49 14 103 31 l97 31 -4 51 c-7 89 -14 137 -21 136 -4 0 -50 -15
-102 -32z"/>
<path d="M2118 2692 c-10 -2 -18 -8 -18 -13 0 -6 -4 -8 -8 -5 -9 5 -67 -13
-90 -28 -9 -5 -12 -18 -8 -35 3 -14 3 -20 -1 -12 -4 9 -61 -141 -63 -166 0 -3
26 4 62 16 20 7 40 20 43 31 3 10 15 20 25 23 11 3 20 10 20 16 0 14 -17 14
-25 1 -3 -5 -15 -10 -26 -10 -21 0 -27 -20 -6 -20 6 0 4 -5 -6 -11 -21 -12
-22 -12 -32 20 -5 16 -4 21 4 17 6 -4 15 10 22 38 11 43 39 84 39 57 0 -23 77
27 84 55 8 30 7 32 -16 26z"/>
<path d="M4800 2562 c0 -5 14 -21 31 -38 l30 -29 -39 -16 -39 -17 22 -101 c12
-55 20 -103 17 -106 -3 -3 1 -5 8 -5 10 0 11 -3 3 -11 -8 -8 -8 -23 2 -55 7
-23 10 -45 7 -48 -13 -13 37 -4 137 25 58 17 107 32 109 34 3 3 -10 65 -51
247 -23 101 -20 98 -76 82 -21 -6 -22 -5 -12 15 16 30 2 26 -35 -10 -28 -27
-34 -29 -52 -18 -12 7 -26 23 -33 36 -12 22 -29 31 -29 15z"/>
<path d="M3535 2510 c-82 -27 -190 -62 -240 -79 l-90 -30 -7 -78 c-3 -43 -4
-80 -2 -82 7 -7 166 42 169 53 2 6 7 29 10 50 3 22 7 41 8 41 1 1 39 13 85 27
l82 26 0 -43 0 -42 48 12 c72 20 102 33 102 47 0 7 3 43 6 81 5 53 4 67 -7 66
-8 0 -81 -22 -164 -49z"/>
<path d="M4216 2509 c-49 -15 -91 -31 -94 -34 -11 -10 -8 -67 3 -71 13 -5 186
42 196 54 8 9 -1 82 -10 81 -3 -1 -46 -14 -95 -30z"/>
<path d="M1545 2495 c-22 -8 -49 -17 -60 -19 -11 -2 -72 -23 -135 -45 l-116
-42 -28 -65 c-16 -36 -26 -67 -24 -70 10 -10 58 16 58 31 0 12 6 15 19 10 11
-3 22 -1 26 4 3 6 0 8 -8 5 -8 -3 -17 2 -20 11 -5 11 6 21 38 37 52 25 65 19
41 -18 -10 -14 -16 -27 -14 -29 7 -7 23 10 40 40 9 17 23 30 30 30 7 0 15 3
18 6 12 15 50 20 50 7 1 -10 4 -9 13 2 7 8 18 16 26 18 50 11 77 31 88 66 13
41 13 40 -42 21z"/>
<path d="M1952 2342 c-58 -20 -71 -29 -66 -41 4 -9 6 -25 6 -36 -6 -60 -8 -71
-17 -81 -5 -7 -13 -10 -17 -7 -4 2 -5 -4 -1 -13 5 -12 3 -15 -6 -9 -10 5 -11
2 -7 -12 4 -11 2 -33 -4 -48 -10 -26 -9 -27 17 -20 16 4 28 7 29 8 0 1 11 35
23 75 21 68 21 74 6 104 -10 21 -12 34 -5 36 6 2 18 11 26 20 15 14 16 14 12
-4 -2 -10 -10 -18 -16 -16 -14 2 -16 -17 -3 -37 7 -11 10 -9 16 8 3 12 11 19
16 16 5 -4 9 -1 9 5 0 6 5 8 10 5 6 -3 10 -1 10 5 0 6 5 8 10 5 6 -3 10 0 10
7 0 9 3 9 10 -2 5 -8 10 -13 10 -10 0 3 4 20 9 38 11 39 11 39 -87 4z"/>
<path d="M4317 2323 c-4 -4 -15 -8 -25 -9 -9 -2 -52 -13 -95 -25 l-78 -23 3
-173 3 -173 30 6 c17 4 71 19 120 33 76 23 90 30 88 46 -1 11 -7 81 -14 155
-12 139 -19 176 -32 163z"/>
<path d="M853 2257 c-56 -19 -64 -25 -75 -56 -7 -20 -11 -40 -10 -44 1 -5 -2
-6 -7 -3 -5 3 -12 -1 -15 -10 -9 -23 -8 -24 12 -17 15 6 15 5 3 -10 -7 -9 -16
-15 -20 -13 -7 5 -64 -94 -59 -100 2 -1 31 7 65 19 50 17 64 28 77 55 20 40
20 42 1 42 -32 0 -2 56 42 79 20 10 60 69 51 75 -2 2 -31 -6 -65 -17z"/>
<path d="M2498 2172 l-76 -27 -7 -50 c-3 -27 -7 -52 -8 -55 -23 -86 -43 -177
-40 -183 2 -4 10 -4 16 0 7 4 17 8 22 8 6 0 11 11 13 25 2 14 13 33 25 42 12
9 22 22 22 29 0 7 6 14 13 17 11 3 12 -6 7 -42 -6 -39 -5 -46 9 -46 9 0 16 4
16 10 0 5 6 7 14 4 11 -4 17 9 25 48 36 184 44 223 48 235 7 18 -10 15 -99
-15z"/>
<path d="M1410 2161 c-25 -10 -52 -20 -60 -24 -8 -3 -67 -22 -131 -42 -122
-38 -155 -58 -165 -103 -4 -15 -16 -42 -27 -61 l-20 -34 29 6 c44 8 155 42
194 61 32 15 33 16 8 12 -20 -2 -28 1 -28 12 0 13 -3 13 -18 -1 -10 -10 -24
-17 -31 -17 -7 0 -10 -4 -7 -9 3 -5 -14 -16 -39 -24 -25 -9 -45 -14 -45 -11 0
3 9 21 19 42 15 29 30 41 67 55 33 12 50 14 52 7 3 -7 12 -6 28 5 13 8 24 13
24 10 0 -3 17 3 38 14 20 10 63 27 94 37 47 14 59 23 68 47 15 45 17 44 -50
18z"/>
<path d="M3666 2123 c-4 -5 -12 -9 -17 -9 -5 -1 -11 -3 -14 -4 -3 -1 -9 -4
-15 -5 -5 -1 -11 -3 -12 -4 -2 -2 -14 -4 -28 -7 -47 -8 -50 -12 -52 -71 l-1
-58 -6 59 c-5 53 -8 58 -21 45 -8 -8 -22 -15 -30 -16 -8 -1 -26 -5 -40 -8 -14
-4 -33 -8 -42 -8 -10 -1 -18 -7 -18 -13 0 -7 -8 -10 -20 -7 -18 5 -20 0 -21
-48 0 -30 -4 -72 -9 -94 -6 -28 -7 -13 -3 54 5 89 4 94 -13 87 -11 -4 -38 -12
-61 -19 -24 -6 -43 -15 -43 -20 0 -4 -5 -5 -11 -1 -17 10 -29 -16 -29 -66 -1
-25 -5 -64 -9 -87 -5 -24 -7 -43 -5 -43 2 0 52 14 111 31 60 17 133 37 163 44
30 7 66 17 80 23 14 6 64 23 112 38 l87 26 -17 34 c-13 28 -14 39 -4 54 7 11
12 38 12 60 0 38 -8 49 -24 33z"/>
<path d="M5070 2039 c-74 -20 -90 -30 -91 -58 -2 -23 -2 -24 -6 -3 -2 12 -8
22 -13 22 -5 0 -11 -10 -13 -22 l-4 -23 -2 23 c-1 24 -11 28 -28 11 -6 -6 -19
-12 -29 -13 -21 -4 -21 -11 2 -91 13 -46 14 -47 11 -13 -5 64 11 27 23 -52 13
-86 36 -125 25 -45 -14 115 -15 130 -6 110 4 -11 11 -46 15 -77 4 -32 12 -61
18 -64 8 -5 9 3 5 23 -3 17 -8 54 -11 84 l-5 54 11 -52 c6 -29 15 -53 21 -53
9 0 7 23 -9 85 -5 19 -3 26 4 21 5 -3 16 -38 23 -76 7 -39 16 -70 21 -70 5 0
6 10 4 23 -17 78 -26 130 -26 145 1 31 17 -9 24 -60 4 -27 11 -48 16 -48 4 0
4 17 -1 38 -5 20 -8 51 -8 67 l1 30 8 -30 c4 -16 13 -56 20 -87 7 -32 17 -58
23 -58 5 0 6 8 2 18 -7 18 -9 27 -19 102 -5 36 -4 39 3 15 5 -16 12 -42 15
-57 11 -50 24 -29 14 23 -16 90 -3 87 17 -3 10 -49 23 -88 28 -88 5 0 7 10 3
23 -3 12 -14 70 -23 130 -9 59 -20 107 -23 106 -3 0 -21 -5 -40 -10z"/>
<path d="M1840 1964 l-75 -25 -40 -122 c-21 -67 -40 -126 -41 -132 -1 -5 -6
-19 -10 -29 -6 -16 -4 -18 10 -13 10 4 23 7 30 7 8 0 20 17 29 38 12 27 14 30
10 10 -4 -22 -1 -28 12 -28 9 0 14 4 11 9 -3 4 8 7 24 5 37 -4 39 0 80 141 18
61 36 122 41 138 4 15 5 27 1 27 -4 -1 -41 -12 -82 -26z"/>
<path d="M672 1912 c-50 -16 -53 -19 -87 -90 -42 -88 -44 -106 -12 -98 14 4
12 1 -7 -8 -16 -7 -30 -20 -32 -27 -1 -8 -5 -22 -9 -31 -9 -22 6 -23 55 -5 50
17 57 23 69 58 10 30 10 30 -19 24 l-30 -7 31 60 c17 33 37 63 45 66 19 7 18
-3 -5 -50 -11 -21 -17 -41 -14 -44 3 -3 8 0 10 6 2 7 19 37 38 68 61 102 59
107 -33 78z"/>
<path d="M4297 1804 c-15 -8 -31 -12 -36 -9 -5 2 -21 -1 -36 -9 -15 -8 -34
-12 -41 -9 -10 4 -14 -5 -16 -33 -1 -37 -1 -38 -5 -6 -2 17 -9 32 -15 32 -7 0
-8 -14 -4 -37 3 -21 6 -55 6 -76 0 -24 4 -36 11 -32 6 4 9 21 7 38 -1 21 2 31
10 30 7 -2 12 1 12 7 0 5 7 7 15 4 11 -4 15 1 16 17 l1 24 7 -25 c5 -17 9 -21
15 -12 4 7 12 10 17 7 5 -4 9 -2 9 4 0 6 7 8 15 5 11 -5 15 1 16 22 l1 29 8
-30 8 -30 8 24 c7 23 8 24 15 5 5 -13 8 -4 8 29 1 52 -6 56 -52 31z"/>
<path d="M1280 1776 c-5 -5 -10 -6 -10 -2 0 5 -6 3 -14 -3 -8 -7 -31 -13 -52
-15 -21 -2 -40 -9 -42 -15 -2 -6 -7 -9 -12 -6 -10 6 -152 -45 -161 -58 -3 -5
-9 -8 -13 -7 -3 1 -20 -1 -36 -5 -32 -7 -47 -32 -75 -121 -13 -41 -13 -41 12
-38 18 2 23 -1 19 -13 -3 -8 -6 -17 -6 -19 0 -3 -5 -2 -11 1 -5 4 -24 1 -41
-6 -24 -10 -33 -10 -36 -1 -5 16 -42 -4 -42 -23 0 -18 -2 -18 -51 -3 -22 6
-39 17 -39 25 0 8 4 12 10 8 5 -3 16 8 25 26 16 30 16 31 -4 24 -12 -4 -21 -2
-21 4 0 6 7 11 15 11 8 0 15 7 15 16 0 8 -5 12 -11 9 -6 -4 -13 2 -16 14 -4
16 -10 20 -30 15 -22 -6 -24 -4 -18 15 5 16 3 20 -9 15 -8 -3 -18 -15 -22 -26
-5 -16 -12 -19 -36 -14 -25 5 -28 4 -19 -8 10 -11 3 -17 -36 -31 -26 -9 -66
-25 -88 -36 -23 -10 -43 -15 -49 -9 -5 5 -19 5 -33 -1 -25 -9 -37 3 -31 31 4
20 -33 25 -44 6 -5 -9 -16 -16 -23 -16 -8 0 -15 -4 -15 -10 0 -5 -7 -10 -16
-10 -8 0 -13 -4 -9 -9 3 -5 -2 -17 -11 -25 -8 -9 -11 -16 -5 -16 19 0 12 -22
-9 -27 -11 -3 -20 -9 -20 -13 0 -4 -18 -15 -39 -23 -47 -19 -57 -32 -35 -45
23 -13 1 -24 -31 -16 -22 5 -25 11 -21 30 5 19 2 24 -14 24 -20 0 -20 -4 -20
-690 l0 -690 500 0 c296 0 499 4 495 10 -3 5 -1 11 4 15 6 3 8 11 5 18 -3 8 4
13 16 13 16 0 20 -6 18 -23 -3 -25 2 -28 35 -19 13 4 18 9 11 13 -6 5 -7 18
-3 33 7 25 7 24 14 -7 9 -41 25 -43 25 -4 0 38 18 49 29 20 10 -29 3 -61 -13
-52 -6 3 -5 0 2 -8 11 -12 14 -12 22 1 7 10 10 11 10 3 0 -8 15 -13 40 -13 25
0 40 5 40 13 0 9 2 9 8 -1 7 -10 16 -10 47 0 37 12 40 16 63 93 27 91 30 95
42 75 5 -8 12 -11 17 -7 4 5 3 11 -3 15 -18 11 -26 49 -15 69 15 26 72 225 66
231 -3 3 -49 -6 -102 -19 l-98 -25 -7 -44 c-4 -25 -14 -50 -23 -56 -11 -8 -12
-13 -3 -22 9 -9 8 -12 -4 -12 -8 0 -21 7 -28 15 -14 17 -40 20 -40 4 0 -5 -4
-7 -10 -4 -5 3 -18 1 -27 -4 -10 -6 -12 -11 -5 -11 21 0 13 -16 -15 -29 -26
-10 -27 -10 -9 4 23 18 16 19 -18 4 -14 -7 -22 -17 -19 -25 5 -14 -62 -37
-100 -34 -35 3 -43 0 -27 -10 13 -8 12 -10 -2 -10 -10 0 -18 -5 -18 -11 0 -6
-9 -8 -22 -4 -18 5 -20 4 -8 -4 11 -8 12 -11 2 -11 -7 0 -11 -4 -7 -9 3 -6 -3
-15 -14 -20 -23 -13 -42 -15 -24 -3 17 11 -14 55 -33 48 -8 -3 -14 -1 -14 5 0
6 -4 8 -9 4 -6 -3 -14 3 -20 12 -9 16 -11 16 -31 -7 -17 -20 -18 -25 -7 -30
10 -3 4 -11 -20 -23 -34 -17 -35 -17 -28 0 4 10 12 32 17 48 6 17 17 37 24 46
8 8 14 22 15 30 0 8 5 3 10 -10 7 -18 12 -22 21 -13 9 9 7 16 -5 30 -9 10 -17
24 -17 30 0 7 -4 12 -10 12 -5 0 -10 -5 -10 -12 0 -6 -2 -9 -5 -6 -4 3 -3 16
0 30 5 21 11 23 42 20 35 -4 35 -4 28 27 -7 34 -4 37 24 19 15 -9 23 -9 35 1
24 20 20 50 -9 57 -14 3 -22 10 -19 15 3 5 -2 6 -11 2 -10 -3 -21 0 -25 7 -10
16 -30 4 -30 -17 0 -11 -5 -13 -17 -7 -10 4 -34 8 -54 7 -28 -1 -39 4 -47 21
-10 18 -10 17 -6 -9 5 -28 2 -32 -40 -50 -46 -20 -54 -29 -36 -40 23 -14 5
-20 -71 -23 -50 -1 -78 1 -74 8 3 5 -2 21 -11 35 -11 17 -13 25 -4 25 8 0 10
9 6 28 -4 15 -8 34 -10 41 -1 8 -8 17 -14 19 -18 6 -14 20 8 27 11 4 18 11 14
16 -3 5 -10 7 -15 3 -5 -3 -20 1 -33 10 -17 11 -22 21 -19 40 3 15 10 23 18
20 7 -3 20 5 29 18 19 27 22 17 4 -13 -10 -17 -10 -23 -1 -26 7 -2 10 -10 7
-17 -3 -7 2 -19 11 -26 8 -7 15 -21 15 -32 0 -15 5 -18 20 -13 13 4 34 -1 54
-13 30 -18 39 -19 92 -8 52 11 59 15 56 34 -4 26 5 28 36 6 20 -13 23 -13 28
0 3 8 12 12 20 9 8 -3 14 1 14 10 0 9 8 13 26 11 20 -2 28 3 36 27 9 26 35 42
72 44 5 0 15 18 23 40 7 22 17 49 22 60 12 27 41 104 41 110 0 3 -12 5 -27 5
-20 0 -24 3 -14 9 8 5 11 16 8 25 -4 9 -2 16 2 16 5 0 11 -7 15 -15 8 -23 53
-19 61 6 6 16 9 18 22 8 8 -7 12 -21 10 -31 -3 -10 -1 -20 4 -23 4 -3 6 -12 2
-20 -4 -12 3 -15 31 -15 20 0 36 -5 36 -11 0 -5 5 -7 12 -3 7 4 26 8 43 8 25
1 30 5 30 26 0 14 -6 25 -13 25 -13 0 -15 7 -5 30 3 9 -2 21 -12 29 -16 12
-16 13 -2 19 11 4 21 -1 27 -13 11 -20 40 -27 54 -13 4 5 13 8 19 8 7 0 12 11
12 25 0 29 23 37 55 20 18 -10 24 -8 36 7 7 10 14 14 14 10 0 -5 11 5 25 21
24 29 53 37 67 17 4 -5 3 -14 -1 -20 -11 -13 -63 -186 -58 -191 2 -2 11 21 21
52 10 31 19 54 22 52 2 -3 -5 -31 -16 -63 -11 -32 -19 -68 -19 -79 1 -16 2
-17 6 -4 2 9 10 15 17 12 7 -3 16 10 22 36 5 23 13 40 18 38 5 -2 16 11 23 27
l14 30 -6 -28 c-3 -17 -2 -26 4 -23 5 3 11 0 14 -6 2 -7 10 6 17 30 7 23 15
40 18 38 2 -3 -1 -19 -7 -37 -15 -44 -6 -49 13 -8 8 19 15 27 16 19 1 -18 37
70 49 122 8 35 7 36 -17 34 -24 -3 -62 19 -62 36 0 5 7 8 15 8 8 0 15 -4 15
-9 0 -11 39 -26 46 -18 3 2 0 16 -5 31 -9 22 -8 26 7 26 14 0 14 2 3 9 -9 6
-24 6 -38 0 -32 -12 -32 -12 -26 11 3 11 10 17 15 14 6 -4 21 6 35 22 14 16
27 28 29 27 15 -10 33 1 44 27 14 34 14 34 41 20 24 -13 27 11 4 30 -18 15
-19 30 -2 30 6 0 20 7 31 15 17 13 17 15 2 30 -9 9 -16 20 -16 25 0 12 29 20
35 10 6 -10 54 -8 72 3 7 4 13 0 16 -10 3 -11 5 -8 6 10 1 22 6 27 26 27 25 0
35 23 15 35 -5 3 -10 15 -10 25 0 10 -6 21 -12 23 -8 4 -7 6 3 6 18 1 32 25
22 35 -4 3 -14 6 -22 6 -9 0 -27 14 -41 30 -28 33 -37 37 -37 15 0 -8 4 -12 9
-9 9 6 5 -32 -5 -42 -4 -4 -26 -11 -49 -15 -64 -12 -161 -40 -174 -50 -13 -11
-24 -1 -24 21 0 29 -23 41 -59 30 -33 -9 -63 -38 -55 -52 3 -5 -4 -8 -15 -8
-12 0 -21 4 -21 8 0 4 -17 9 -37 9 -44 1 -67 26 -59 65 3 16 0 28 -7 31 -23 8
-72 -25 -97 -64 -13 -22 -29 -38 -35 -35 -5 2 -16 -3 -23 -10 -10 -12 -10 -14
3 -14 12 0 13 -3 4 -13 -13 -14 -86 -10 -95 5 -4 6 0 14 7 19 7 4 11 9 9 11
-3 2 -18 11 -35 20 -16 9 -31 20 -32 25 -2 5 29 16 69 26 40 9 74 21 76 27 2
6 8 8 13 5 17 -11 49 16 68 58 23 52 36 90 33 100 -1 4 3 7 8 7 6 0 10 4 10 8
0 12 -27 11 -40 -2z"/>
<path d="M2425 1749 c-33 -10 -68 -19 -77 -19 -12 0 -19 -11 -23 -37 -4 -21
-14 -68 -22 -106 -9 -37 -13 -70 -10 -73 3 -3 20 -3 37 1 23 5 30 11 26 22 -9
22 13 95 34 115 24 23 38 4 16 -21 -9 -10 -16 -31 -16 -47 0 -17 -6 -36 -12
-43 -11 -11 -8 -12 14 -7 50 12 79 26 73 36 -3 5 -2 10 4 10 14 0 26 81 13 89
-7 4 -8 12 -2 21 6 8 10 11 10 5 1 -23 20 22 20 48 0 31 -4 32 -85 6z"/>
<path d="M3555 1624 c-33 -12 -279 -87 -411 -125 -31 -9 -32 -10 -38 -92 -4
-45 -9 -96 -12 -112 -5 -26 -2 -31 15 -31 16 0 21 7 22 31 l2 30 4 -28 c7 -45
23 -20 24 36 0 29 4 70 9 92 6 30 8 16 5 -55 -3 -62 -1 -85 4 -65 7 23 9 25
10 8 1 -16 6 -20 20 -16 19 5 35 67 22 88 -3 6 -9 -10 -12 -35 l-6 -45 -1 45
c0 25 3 65 7 90 l8 45 3 -45 c2 -43 3 -44 11 -15 5 19 6 2 3 -50 -6 -89 8 -95
17 -7 l6 57 2 -64 c1 -80 11 -74 17 10 2 35 8 82 14 104 7 31 8 17 4 -60 -3
-65 -1 -96 5 -90 5 6 12 37 14 70 l3 60 3 -65 c2 -49 5 -59 11 -40 8 25 8 25
9 2 2 -40 21 -13 22 31 0 23 4 60 9 82 6 28 7 16 3 -44 -4 -62 -3 -82 6 -77 6
4 12 33 13 64 l1 57 7 -60 c4 -33 8 -49 9 -35 3 18 5 20 8 8 9 -35 23 -17 24
30 0 26 4 67 9 92 6 33 7 19 3 -47 -3 -65 -2 -93 6 -93 7 0 11 21 12 53 0 28
4 72 8 97 l8 45 2 -37 c1 -47 18 -50 24 -5 3 17 3 -5 1 -50 -3 -52 0 -83 6
-83 5 0 10 25 10 55 0 30 3 55 8 55 4 0 5 -22 4 -50 -3 -32 0 -50 7 -50 6 0
11 8 12 18 0 14 2 14 9 -3 8 -18 9 -18 10 5 2 18 4 20 7 8 10 -41 23 -13 25
55 l2 72 6 -70 c6 -78 17 -62 23 35 3 53 3 53 5 -12 3 -107 21 -79 21 32 0 58
-4 100 -9 100 -6 0 -10 -6 -10 -12 -1 -8 -6 -6 -14 5 -16 20 -37 21 -91 1z"/>
<path d="M2400 1519 c-47 -17 -77 -25 -112 -28 -7 -1 -28 -66 -28 -88 0 -18
28 -16 103 7 70 22 83 32 91 70 2 14 7 33 11 43 9 21 4 21 -65 -4z"/>
<path d="M5195 1460 c3 -5 0 -7 -9 -4 -8 3 -30 1 -49 -5 -19 -7 -43 -14 -53
-16 -88 -20 -110 -26 -120 -29 -8 -3 -3 -41 14 -123 13 -65 25 -131 26 -148 7
-93 31 -215 43 -215 8 0 13 13 14 33 l1 32 7 -30 c5 -19 12 -29 22 -26 8 2 19
4 24 5 6 2 28 8 50 14 53 15 106 25 127 24 10 0 20 3 23 8 5 7 -9 89 -30 188
-7 30 -35 29 -35 -1 0 -13 -9 -32 -19 -41 -19 -17 -19 -17 -14 3 3 12 9 21 14
21 5 0 9 7 9 16 0 12 -6 15 -22 10 -13 -3 -29 -6 -35 -6 -7 0 -13 -7 -13 -15
0 -18 26 -20 33 -2 3 6 6 3 6 -8 1 -28 -34 -80 -44 -65 -4 6 -16 10 -26 7 -14
-4 -19 0 -19 16 0 35 -16 53 -33 39 -7 -7 -17 -9 -21 -4 -4 4 -12 -2 -18 -13
-11 -19 -11 -19 -19 0 -4 11 -8 28 -8 39 -1 14 2 16 12 7 18 -14 27 -4 28 33
1 29 2 29 8 7 7 -26 31 -41 31 -20 0 9 3 10 11 2 8 -8 18 -7 37 3 15 8 36 14
48 14 11 0 25 5 32 12 9 9 12 9 12 -1 0 -7 4 -10 9 -7 5 4 12 0 14 -6 11 -27
6 20 -13 131 -11 62 -20 117 -20 122 0 5 -9 9 -21 9 -11 0 -17 -4 -14 -10z"/>
<path d="M2380 1267 c-38 -14 -37 -14 -96 -23 -22 -3 -46 -9 -53 -13 -6 -4
-27 -84 -46 -177 -19 -93 -40 -180 -45 -193 -12 -26 -4 -44 9 -22 6 9 11 10
15 2 9 -14 46 8 47 29 0 10 3 8 9 -5 5 -11 9 -14 9 -6 1 7 7 11 16 7 8 -3 15
-1 15 4 0 5 7 7 15 4 10 -4 15 0 15 11 0 9 5 13 10 10 6 -3 10 0 11 7 0 7 4 4
9 -7 7 -18 8 -17 15 10 4 17 11 43 16 59 6 19 6 33 -1 40 -13 13 -13 29 -1 21
13 -7 20 6 26 51 4 22 11 53 16 70 8 26 29 135 25 134 -1 -1 -17 -7 -36 -13z"/>
<path d="M4335 1239 c-38 -11 -94 -27 -122 -36 l-53 -16 6 -76 c3 -42 8 -96
11 -121 4 -25 5 -49 4 -55 -5 -16 -1 -217 4 -225 2 -4 36 0 75 9 l70 16 2 75
2 75 5 -68 c7 -78 23 -92 32 -27 l6 45 1 -38 c2 -38 2 -38 35 -32 17 4 34 9
36 11 10 9 -15 198 -26 202 -9 2 -13 -9 -14 -35 l-1 -38 -9 40 c-4 22 -7 81
-7 130 l2 90 5 -74 c4 -46 11 -76 19 -79 14 -4 15 22 6 156 -4 51 -10 92 -13
91 -3 0 -37 -9 -76 -20z"/>
<path d="M3659 1056 c-3 -3 -16 -8 -30 -10 -13 -2 -25 -5 -26 -7 -2 -1 -9 -2
-15 -3 -8 -1 -15 -25 -19 -66 l-6 -65 -1 63 c-1 34 -4 62 -6 62 -3 0 -16 -4
-31 -10 -14 -5 -40 -12 -58 -15 -18 -3 -75 -17 -127 -31 -52 -14 -103 -28
-113 -30 -10 -2 -27 -6 -37 -9 -10 -3 -27 -7 -37 -10 -10 -2 -38 -8 -63 -15
l-46 -11 -16 -132 c-9 -72 -15 -133 -13 -135 2 -3 15 -2 29 2 17 4 26 14 29
34 l4 27 2 -28 c1 -23 5 -27 20 -22 11 3 28 8 38 10 10 2 54 14 98 26 44 11
88 22 98 24 9 2 21 6 25 9 5 3 22 8 38 11 16 3 56 12 89 21 33 8 67 17 75 18
8 2 28 8 43 14 15 7 33 11 40 9 8 -1 14 30 20 103 8 108 6 176 -4 166z"/>
<path d="M5201 741 c-80 -20 -146 -42 -149 -49 -2 -7 10 -42 27 -78 17 -37 31
-77 31 -91 0 -23 3 -25 33 -20 17 3 75 17 126 31 52 14 103 26 112 26 16 0 17
8 12 73 -6 91 -20 147 -36 146 -7 -1 -77 -18 -156 -38z"/>
<path d="M2183 672 c-102 -26 -103 -26 -103 -56 0 -17 -7 -67 -15 -110 -8 -44
-13 -81 -10 -84 2 -3 7 1 9 9 2 8 7 21 9 29 3 8 6 0 6 -18 1 -24 4 -31 14 -25
6 4 16 8 21 8 5 0 12 9 17 20 6 17 8 17 8 3 1 -18 21 -26 21 -8 0 5 7 7 15 4
8 -4 15 -2 15 4 0 6 9 8 20 5 11 -3 20 0 20 6 0 5 6 8 14 5 11 -4 17 9 25 53
7 32 16 77 21 100 12 50 13 83 3 82 -5 0 -54 -12 -110 -27z"/>
<path d="M4310 527 c-101 -26 -125 -35 -124 -49 3 -69 5 -78 18 -78 17 0 26
-44 26 -126 0 -35 4 -64 10 -64 5 0 29 7 53 15 37 12 157 34 193 35 11 0 10
162 -2 258 -6 52 -5 52 -174 9z"/>
<path d="M5315 533 c-27 -8 -83 -22 -123 -31 -74 -16 -74 -17 -68 -46 4 -16 8
-31 9 -33 2 -1 57 11 123 27 65 17 126 30 136 30 9 0 20 5 24 11 5 8 -4 10
-32 6 l-39 -6 33 11 c32 11 44 28 20 28 -9 0 -8 4 2 10 23 15 -24 11 -85 -7z"/>
<path d="M2230 420 c0 -5 -9 -10 -20 -10 -12 0 -20 -7 -21 -17 0 -15 -2 -15
-9 2 -7 19 -8 19 -15 2 -5 -12 -10 -15 -15 -7 -10 16 -60 -5 -61 -27 -1 -12
-3 -10 -9 7 l-7 25 -11 -25 -11 -25 -1 30 c-1 46 -16 13 -34 -80 -9 -44 -19
-88 -22 -97 -3 -10 -1 -18 4 -18 6 0 15 17 21 38 l10 37 -5 -37 c-4 -34 -3
-37 21 -34 14 1 28 5 31 9 3 3 12 3 20 0 9 -3 14 2 14 13 0 12 3 15 8 7 11
-17 62 -4 62 16 0 14 2 14 10 1 14 -22 18 -11 40 90 23 108 23 110 10 110 -5
0 -10 -4 -10 -10z"/>
<path d="M5268 393 c-76 -19 -138 -40 -138 -45 0 -5 17 -6 38 -3 l37 5 -35
-14 -35 -14 35 -3 c31 -2 32 -2 8 -6 -30 -5 -33 -10 -19 -31 7 -12 19 -12 65
-2 32 6 60 10 62 7 2 -2 -22 -10 -53 -17 -72 -15 -106 -34 -48 -26 22 4 88 17
148 30 59 13 107 20 107 16 0 -4 -37 -15 -82 -25 -164 -34 -228 -54 -182 -56
18 0 18 -1 -1 -10 -20 -9 45 -5 119 7 25 5 28 3 16 -6 -12 -9 -6 -10 25 -5
110 18 135 26 135 46 0 10 -4 19 -8 19 -4 0 -8 10 -9 23 -1 70 3 67 -60 51
-78 -19 -139 -28 -132 -21 3 4 41 14 85 23 83 17 138 39 74 30 l-35 -5 30 14
30 13 -25 5 c-23 4 -23 4 -2 6 12 0 22 8 22 16 0 20 -14 19 -172 -22z"/>
<path d="M3570 355 c-30 -7 -98 -23 -150 -35 -340 -75 -456 -102 -462 -108 -3
-4 -10 -53 -13 -109 l-8 -103 26 0 c20 0 27 6 31 30 3 16 8 42 11 58 5 25 12
29 88 46 45 11 87 23 94 28 8 6 13 2 16 -14 4 -22 4 -21 6 3 1 29 21 37 139
60 49 9 66 9 71 0 6 -8 33 -5 105 15 54 14 104 23 111 21 9 -4 14 9 18 46 8
83 7 84 -83 62z"/>
<path d="M4430 204 c-30 -7 -90 -21 -133 -30 -68 -14 -77 -18 -72 -35 4 -10 6
-34 6 -51 0 -18 3 -45 5 -59 l5 -26 141 -1 141 -2 -6 108 c-4 59 -7 108 -7
110 0 4 -25 0 -80 -14z"/>
<path d="M6295 91 c-6 -4 -77 -22 -160 -40 -82 -18 -166 -36 -185 -40 -23 -6
51 -9 208 -10 l242 -1 0 50 0 50 -48 0 c-26 0 -52 -4 -57 -9z"/>
</g>
</svg>
